<?xml version="1.0" encoding="UTF-8" standalone="no"?>
<!-- Created with Inkscape (http://www.inkscape.org/) -->

<svg
   xmlns:dc="http://purl.org/dc/elements/1.1/"
   xmlns:cc="http://creativecommons.org/ns#"
   xmlns:rdf="http://www.w3.org/1999/02/22-rdf-syntax-ns#"
   xmlns:svg="http://www.w3.org/2000/svg"
   xmlns="http://www.w3.org/2000/svg"
   xmlns:sodipodi="http://sodipodi.sourceforge.net/DTD/sodipodi-0.dtd"
   xmlns:inkscape="http://www.inkscape.org/namespaces/inkscape"
   id="svg4303"
   version="1.1"
   inkscape:version="0.91 r13725"
   xml:space="preserve"
   width="408.08713"
   height="211.81012"
   viewBox="0 0 408.08713 211.81011"
   sodipodi:docname="zermelo2013.svg"><metadata
     id="metadata4309"><rdf:RDF><cc:Work
         rdf:about=""><dc:format>image/svg+xml</dc:format><dc:type
           rdf:resource="http://purl.org/dc/dcmitype/StillImage" /><dc:title></dc:title></cc:Work></rdf:RDF></metadata><defs
     id="defs4307"><clipPath
       clipPathUnits="userSpaceOnUse"
       id="clipPath4317"><path
         d="m 0,841.89 595.275,0 L 595.275,0 0,0 0,841.89 Z"
         id="path4319"
         inkscape:connector-curvature="0" /></clipPath></defs><sodipodi:namedview
     pagecolor="#ffffff"
     bordercolor="#666666"
     borderopacity="1"
     objecttolerance="10"
     gridtolerance="10"
     guidetolerance="10"
     inkscape:pageopacity="0"
     inkscape:pageshadow="2"
     inkscape:window-width="1920"
     inkscape:window-height="1016"
     id="namedview4305"
     showgrid="false"
     fit-margin-top="0"
     fit-margin-left="0"
     fit-margin-right="0"
     fit-margin-bottom="0"
     inkscape:zoom="1.2685909"
     inkscape:cx="41.793346"
     inkscape:cy="152.35915"
     inkscape:window-x="0"
     inkscape:window-y="27"
     inkscape:window-maximized="1"
     inkscape:current-layer="g4311" /><g
     id="g4311"
     inkscape:groupmode="layer"
     inkscape:label="Logo Zermelo CMYK"
     transform="matrix(1.25,0,0,-1.25,-173.77137,631.91837)"><g
       id="g4313"><g
         id="g4315"
         clip-path="url(#clipPath4317)"><g
           id="g4321"
           transform="translate(139.0171,342.8555)"><path
             d="m 0,0 19.882,24.281 c 1.946,2.454 3.638,3.977 3.638,3.977 l 0,0.17 c 0,0 -1.27,-0.17 -3.977,-0.17 l -7.783,0 c -1.185,0 -1.862,-0.677 -1.862,-1.862 l 0,-2.453 -9.729,0 0,7.699 c 0,3.976 1.692,5.753 5.753,5.753 l 31.642,0 0,-5.837 L 17.682,7.275 C 15.736,4.907 14.044,3.301 14.044,3.301 l 0,-0.17 c 0,0 1.269,0.254 4.061,0.254 l 9.476,0 c 1.184,0 1.861,0.592 1.861,1.86 l 0,2.37 9.729,0 0,-7.615 c 0,-4.061 -1.692,-5.752 -5.669,-5.752 L 0,-5.752 0,0 Z"
             style="fill:#ef2f2c;fill-opacity:1;fill-rule:nonzero;stroke:none"
             id="path4323"
             inkscape:connector-curvature="0" /></g><g
           id="g4325"
           transform="translate(212.5522,364.2598)"><path
             d="m 0,0 c -0.169,5.161 -3.723,8.715 -8.122,8.715 -5.5,0 -9.391,-3.3 -10.575,-8.715 L 0,0 Z m -8.122,17.006 c 12.351,0 19.12,-9.053 19.12,-20.474 0,-1.27 -0.254,-3.976 -0.254,-3.976 l -29.78,0 c 0.846,-7.615 6.43,-11.591 12.944,-11.591 6.938,0 12.098,4.822 12.098,4.822 l 4.484,-7.445 c 0,0 -6.599,-6.515 -17.343,-6.515 -14.298,0 -23.181,10.321 -23.181,22.589 0,13.283 8.968,22.59 21.912,22.59"
             style="fill:#ef2f2c;fill-opacity:1;fill-rule:nonzero;stroke:none"
             id="path4327"
             inkscape:connector-curvature="0" /></g><g
           id="g4329"
           transform="translate(271.7026,369.252)"><path
             d="m 0,0 c 0,1.269 -0.676,1.861 -1.861,1.861 l -3.385,0 0,9.137 9.899,0 c 3.807,0 5.669,-1.776 5.669,-4.822 l 0,-1.269 c 0,-0.93 -0.085,-1.862 -0.085,-1.862 l 0.169,0 c 2.031,4.23 7.192,8.969 13.96,8.969 6.514,0 10.745,-3.046 12.605,-8.883 l 0.17,0 c 2.284,4.652 7.868,8.883 14.721,8.883 8.968,0 14.128,-5.076 14.128,-16.413 l 0,-16.836 c 0,-1.185 0.677,-1.861 1.862,-1.861 l 3.299,0 0,-9.052 -10.151,0 c -4.063,0 -5.755,1.691 -5.755,5.752 l 0,19.966 c 0,4.907 -0.93,8.629 -5.921,8.629 -5.33,0 -9.137,-4.483 -10.322,-9.897 -0.507,-1.693 -0.677,-3.47 -0.677,-5.5 l 0,-18.95 -10.745,0 0,25.718 c 0,4.653 -0.676,8.629 -5.837,8.629 -5.414,0 -9.053,-4.483 -10.406,-9.983 -0.423,-1.692 -0.677,-3.468 -0.677,-5.414 l 0,-18.95 -10.66,0 L 0,0 Z"
             style="fill:#ef2f2c;fill-opacity:1;fill-rule:nonzero;stroke:none"
             id="path4331"
             inkscape:connector-curvature="0" /></g><g
           id="g4333"
           transform="translate(377.2793,364.2598)"><path
             d="m 0,0 c -0.17,5.161 -3.723,8.715 -8.123,8.715 -5.499,0 -9.391,-3.3 -10.575,-8.715 L 0,0 Z m -8.123,17.006 c 12.353,0 19.12,-9.053 19.12,-20.474 0,-1.27 -0.252,-3.976 -0.252,-3.976 l -29.781,0 c 0.846,-7.615 6.431,-11.591 12.945,-11.591 6.937,0 12.098,4.822 12.098,4.822 l 4.483,-7.445 c 0,0 -6.598,-6.515 -17.344,-6.515 -14.296,0 -23.18,10.321 -23.18,22.589 0,13.283 8.968,22.59 21.911,22.59"
             style="fill:#ef2f2c;fill-opacity:1;fill-rule:nonzero;stroke:none"
             id="path4335"
             inkscape:connector-curvature="0" /></g><g
           id="g4337"
           transform="translate(397.832,386.1729)"><path
             d="m 0,0 c 0,1.269 -0.678,1.86 -1.862,1.86 l -3.384,0 0,9.138 10.237,0 c 3.976,0 5.752,-1.777 5.752,-5.754 l 0,-43.4 c 0,-1.185 0.678,-1.861 1.862,-1.861 l 3.3,0 0,-9.052 -10.152,0 C 1.692,-49.069 0,-47.378 0,-43.317 L 0,0 Z"
             style="fill:#ef2f2c;fill-opacity:1;fill-rule:nonzero;stroke:none"
             id="path4339"
             inkscape:connector-curvature="0" /></g><g
           id="g4341"
           transform="translate(402.2432,393.2695)"><path
             d="m 0,0 c 1.958,0.007 2.661,-0.906 2.661,-2.161 l 0,-43.217 c 0,-3.292 1.693,-5.647 5.537,-5.647 l 3.296,0 0,3.912 -3.3,0 c -1.184,0 -1.862,0.675 -1.862,1.86 l 0,43.4 c 0,3.977 -1.776,5.754 -5.752,5.754 l -10.237,0 L -9.657,0 0,0 Z"
             style="fill:#ce0f3e;fill-opacity:1;fill-rule:nonzero;stroke:none"
             id="path4343"
             inkscape:connector-curvature="0" /></g><g
           id="g4345"
           transform="translate(441.7988,345.2246)"><path
             d="m 0,0 c 7.022,0 12.859,5.414 12.859,13.451 0,7.953 -5.837,13.453 -12.859,13.453 -6.938,0 -12.774,-5.5 -12.774,-13.453 C -12.774,5.414 -6.938,0 0,0 m 0,36.041 c 13.199,0 23.688,-9.391 23.688,-22.59 C 23.688,0.17 13.199,-9.138 0,-9.138 c -13.113,0 -23.604,9.308 -23.604,22.589 0,13.199 10.491,22.59 23.604,22.59"
             style="fill:#ef2f2c;fill-opacity:1;fill-rule:nonzero;stroke:none"
             id="path4347"
             inkscape:connector-curvature="0" /></g><g
           id="g4349"
           transform="translate(233.9556,369.252)"><path
             d="m 0,0 c 0,1.269 -0.676,1.861 -1.861,1.861 l -3.384,0 0,9.137 9.814,0 c 3.807,0 5.753,-1.606 5.753,-5.245 l 0,-2.538 c 0,-1.608 -0.169,-2.708 -0.169,-2.708 l 0.169,0 c 1.946,6.177 7.107,11.083 13.706,11.083 0.93,0 1.946,-0.168 1.946,-0.168 l 0,-10.575 c 0,0 -1.1,0.168 -2.623,0.168 -4.569,0 -9.814,-2.622 -11.76,-9.053 -0.592,-2.114 -0.931,-4.483 -0.931,-7.021 l 0,-17.089 -10.66,0 L 0,0 Z"
             style="fill:#ef2f2c;fill-opacity:1;fill-rule:nonzero;stroke:none"
             id="path4351"
             inkscape:connector-curvature="0" /></g><g
           id="g4353"
           transform="translate(237.5894,369.2471)"><path
             d="m 0,0 c 0,6.118 -5.502,5.787 -5.502,5.787 l -3.377,0 0,-3.921 3.384,0 c 1.185,0 1.861,-0.593 1.861,-1.861 l 0,-32.149 3.643,0.004 L 0,0 Z"
             style="fill:#ce0f3e;fill-opacity:1;fill-rule:nonzero;stroke:none"
             id="path4355"
             inkscape:connector-curvature="0" /></g><g
           id="g4357"
           transform="translate(323.792,490.7773)"><path
             d="M 0,0 C -8.962,9.065 -21.415,14.688 -35.175,14.688 -48.935,14.688 -61.381,9.065 -70.349,0 L 0,0 Z"
             style="fill:#ef2f2c;fill-opacity:1;fill-rule:nonzero;stroke:none"
             id="path4359"
             inkscape:connector-curvature="0" /></g><g
           id="g4361"
           transform="translate(254.4683,420.313)"><path
             d="m 0,0 c 8.879,-8.477 20.903,-13.689 34.149,-13.689 13.25,0 25.269,5.212 34.152,13.689 L 0,0 Z"
             style="fill:#ce0f3e;fill-opacity:1;fill-rule:nonzero;stroke:none"
             id="path4363"
             inkscape:connector-curvature="0" /></g><g
           id="g4365"
           transform="translate(342.8311,505.5347)"><path
             d="m 0,0 -3.62,0 c 0,-31.814 -16.247,-52.841 -49.642,-64.266 l 1.366,-3.906 43.536,0 c 2.334,5.746 3.63,12.028 3.63,18.616 0,5.719 -0.982,11.208 -2.766,16.317 C -2.522,-23.698 0,-12.569 0,0"
             style="fill:#ce0f3e;fill-opacity:1;fill-rule:nonzero;stroke:none"
             id="path4367"
             inkscape:connector-curvature="0" /></g><g
           id="g4369"
           transform="translate(285.4287,465.9438)"><path
             d="m 0,0 c -13.627,-5.009 -24.166,-12.051 -31.352,-20.967 -8.173,-10.138 -12.317,-23.047 -12.317,-38.369 l 2.892,0 c 0,27.725 13.635,46.259 41.642,56.573 L 0,0 Z"
             style="fill:#ce0f3e;fill-opacity:1;fill-rule:nonzero;stroke:none"
             id="path4371"
             inkscape:connector-curvature="0" /></g><g
           id="g4373"
           transform="translate(283.0332,473.6016)"><path
             d="m 0,0 -40.655,0 c -2.09,-5.474 -3.245,-11.413 -3.245,-17.623 0,-5.484 0.909,-10.753 2.557,-15.68 -5.13,-9.643 -7.728,-20.924 -7.728,-33.691 l 3.618,0 c 0,30.843 15.278,51.553 46.641,63.196 L 0,0 Z"
             style="fill:#ef2f2c;fill-opacity:1;fill-rule:nonzero;stroke:none"
             id="path4375"
             inkscape:connector-curvature="0" /></g><g
           id="g4377"
           transform="translate(332.1377,505.5347)"><path
             d="m 0,0 c 0,-28.769 -14.672,-47.646 -44.854,-57.704 l 0.952,-2.733 c 15.148,5.054 26.75,12.477 34.48,22.066 C -1.247,-28.229 2.896,-15.32 2.896,0 L 0,0 Z"
             style="fill:#ef2f2c;fill-opacity:1;fill-rule:nonzero;stroke:none"
             id="path4379"
             inkscape:connector-curvature="0" /></g></g></g></g></svg>